# xmcd
#
# Track frame offsets: 
#        150
#        27565
#        44065
#        67587
#        88537
#        106972
#        120845
#        137202
#        157377
#        174485
#        191297
#        194107
#        195105
#        216727
#        218975
#        219735
#        239222
#        242880
#        265165
#
# Disc length: 3628 seconds
#
# Revision: 1
# Processed by: cddbd v1.5.2PL0 Copyright (c) Steve Scherf et al.
# Submitted via: ExactAudioCopyFreeDBPlugin 1.0
#
DISCID=2c0e2a13
DTITLE=Michael Jackson - Off the Wall
DYEAR=1979
DGENRE=Disco/Funk
TTITLE0=Don't Stop 'Til You Get Enough
TTITLE1=Rock with You
TTITLE2=Workin' Day and Night
TTITLE3=Get on the Floor
TTITLE4=Off the Wall
TTITLE5=Girlfriend
TTITLE6=She's Out of My Life
TTITLE7=I Can't Help It
TTITLE8=It's the Falling in Love
TTITLE9=Burn This Disco Out
TTITLE10=Quincy Jones Commentary #1
TTITLE11=Don't Stop 'Til You Get Enough (Intro)
TTITLE12=Don't Stop 'Til You Get Enough (Original Demo Recording From 
TTITLE12=1978)
TTITLE13=Quincy Jones Commentary #2
TTITLE14=Workin' Day and Night (Intro)
TTITLE15=Workin' Day and Night (Original Demo Recording From 1978)
TTITLE16=Quincy Jones Commentary #3
TTITLE17=Rod Tempterton Commentary
TTITLE18=Quincy Jones Commentary #4
EXTD=
EXTT0=
EXTT1=
EXTT2=
EXTT3=
EXTT4=
EXTT5=
EXTT6=
EXTT7=
EXTT8=
EXTT9=
EXTT10=
EXTT11=
EXTT12=
EXTT13=
EXTT14=
EXTT15=
EXTT16=
EXTT17=
EXTT18=
PLAYORDER=
